<?xml version="1.0" encoding="UTF-8" standalone="no"?>
<svg
   width="106mm"
   height="22.69mm"
   viewBox="0 0 106 22.69"
   version="1.1"
   id="svg46"
   sodipodi:docname="clarky-il.svg"
   inkscape:version="1.1.1 (3bf5ae0d25, 2021-09-20)"
   xmlns:inkscape="http://www.inkscape.org/namespaces/inkscape"
   xmlns:sodipodi="http://sodipodi.sourceforge.net/DTD/sodipodi-0.dtd"
   xmlns="http://www.w3.org/2000/svg"
   xmlns:svg="http://www.w3.org/2000/svg"
   xmlns:rdf="http://www.w3.org/1999/02/22-rdf-syntax-ns#"
   xmlns:cc="http://creativecommons.org/ns#"
   xmlns:dc="http://purl.org/dc/elements/1.1/">
  <defs
     id="defs50">
    <marker
       style="overflow:visible"
       id="Arrow2Mstart"
       refX="0.0"
       refY="0.0"
       orient="auto"
       inkscape:stockid="Arrow2Mstart"
       inkscape:isstock="true">
      <path
         transform="scale(0.6) translate(0,0)"
         d="M 8.7185878,4.0337352 L -2.2072895,0.016013256 L 8.7185884,-4.0017078 C 6.9730900,-1.6296469 6.9831476,1.6157441 8.7185878,4.0337352 z "
         style="stroke:context-stroke;fill-rule:evenodd;fill:context-stroke;stroke-width:0.62500000;stroke-linejoin:round"
         id="path50592" />
    </marker>
    <marker
       style="overflow:visible;"
       id="marker50862"
       refX="0.0"
       refY="0.0"
       orient="auto"
       inkscape:stockid="Arrow2Mend"
       inkscape:isstock="true">
      <path
         transform="scale(0.6) rotate(180) translate(0,0)"
         d="M 8.7185878,4.0337352 L -2.2072895,0.016013256 L 8.7185884,-4.0017078 C 6.9730900,-1.6296469 6.9831476,1.6157441 8.7185878,4.0337352 z "
         style="stroke:context-stroke;fill-rule:evenodd;fill:context-stroke;stroke-width:0.62500000;stroke-linejoin:round;"
         id="path50860" />
    </marker>
    <marker
       style="overflow:visible;"
       id="Arrow2Mend"
       refX="0.0"
       refY="0.0"
       orient="auto"
       inkscape:stockid="Arrow2Mend"
       inkscape:isstock="true">
      <path
         transform="scale(0.6) rotate(180) translate(0,0)"
         d="M 8.7185878,4.0337352 L -2.2072895,0.016013256 L 8.7185884,-4.0017078 C 6.9730900,-1.6296469 6.9831476,1.6157441 8.7185878,4.0337352 z "
         style="stroke:context-stroke;fill-rule:evenodd;fill:context-stroke;stroke-width:0.62500000;stroke-linejoin:round;"
         id="path50595" />
    </marker>
    <marker
       style="overflow:visible"
       id="Arrow2Lstart"
       refX="0.0"
       refY="0.0"
       orient="auto"
       inkscape:stockid="Arrow2Lstart"
       inkscape:isstock="true">
      <path
         transform="scale(1.1) translate(1,0)"
         d="M 8.7185878,4.0337352 L -2.2072895,0.016013256 L 8.7185884,-4.0017078 C 6.9730900,-1.6296469 6.9831476,1.6157441 8.7185878,4.0337352 z "
         style="stroke:context-stroke;fill-rule:evenodd;fill:context-stroke;stroke-width:0.62500000;stroke-linejoin:round"
         id="path50586" />
    </marker>
    <marker
       style="overflow:visible;"
       id="Arrow1Lend"
       refX="0.0"
       refY="0.0"
       orient="auto"
       inkscape:stockid="Arrow1Lend"
       inkscape:isstock="true">
      <path
         transform="scale(0.8) rotate(180) translate(12.5,0)"
         style="fill-rule:evenodd;fill:context-stroke;stroke:context-stroke;stroke-width:1.0pt;"
         d="M 0.0,0.0 L 5.0,-5.0 L -12.5,0.0 L 5.0,5.0 L 0.0,0.0 z "
         id="path50571" />
    </marker>
    <marker
       style="overflow:visible"
       id="Arrow1Lstart"
       refX="0.0"
       refY="0.0"
       orient="auto"
       inkscape:stockid="Arrow1Lstart"
       inkscape:isstock="true">
      <path
         transform="scale(0.8) translate(12.5,0)"
         style="fill-rule:evenodd;fill:context-stroke;stroke:context-stroke;stroke-width:1.0pt"
         d="M 0.0,0.0 L 5.0,-5.0 L -12.5,0.0 L 5.0,5.0 L 0.0,0.0 z "
         id="path50568" />
    </marker>
  </defs>
  <sodipodi:namedview
     id="namedview48"
     pagecolor="#4e4e4e"
     bordercolor="#666666"
     borderopacity="1.0"
     inkscape:pageshadow="2"
     inkscape:pageopacity="0"
     inkscape:pagecheckerboard="0"
     inkscape:document-units="mm"
     showgrid="false"
     inkscape:zoom="5.2816824"
     inkscape:cx="88.134796"
     inkscape:cy="25.086703"
     inkscape:window-width="1920"
     inkscape:window-height="1017"
     inkscape:window-x="-8"
     inkscape:window-y="-8"
     inkscape:window-maximized="1"
     inkscape:current-layer="svg46" />
  <title
     id="title2">Airfoil plot (clarky-il) CLARK Y AIRFOIL by AirfoilTools.com</title>
  <g
     transform="translate(0,18.18812)"
     id="g44">
    <g
       transform="scale(1,1)"
       id="g42">
      <text
         fill="rgb(48,48,144)"
         font-size="1.8px"
         style="font-family:Arial, Helvetica, sans-serif;fill:#ffffff;fill-opacity:1"
         x="1"
         y="2"
         id="text38">Name = CLARK Y AIRFOIL</text>
      <text
         fill="rgb(48,48,144)"
         font-size="1.8px"
         style="font-family:Arial, Helvetica, sans-serif;fill:#ffffff;fill-opacity:1"
         x="1"
         y="4"
         id="text40">Chord = 100mm</text>
    </g>
  </g>
  <metadata
     id="metadata981">
    <rdf:RDF>
      <cc:Work
         rdf:about="">
        <dc:title>Airfoil plot (clarky-il) CLARK Y AIRFOIL by AirfoilTools.com</dc:title>
      </cc:Work>
    </rdf:RDF>
  </metadata>
  <path
     style="fill:none;stroke:#fb6b29;stroke-width:0.365;stroke-linecap:butt;stroke-linejoin:miter;stroke-opacity:1;stroke-miterlimit:4;stroke-dasharray:2.19000001,2.19000001;stroke-dashoffset:0"
     d="m 3,12.16266 c 0,0 15.832965,-2.775791 23.449906,-2.7448906 C 75.843101,9.6181476 103,12.10266 103,12.10266"
     id="path8647"
     sodipodi:nodetypes="csc" />
  <g
     transform="translate(3,12.16266)"
     id="g36">
    <g
       transform="scale(1,-1)"
       id="g34">
      <path
         fill="none"
         stroke="blue"
         stroke-width="0.1"
         d="M 0 0 L 100 0 "
         id="path28" />
      <line
         fill="none"
         stroke="black"
         stroke-width="0.1"
         x1="-3"
         x2="103"
         y1="0"
         y2="0"
         id="line30"
         style="stroke:#97e0e8;stroke-opacity:1;stroke-width:0.4;stroke-miterlimit:4;stroke-dasharray:none" />
      <line
         fill="none"
         stroke="black"
         stroke-width="0.1"
         x1="0"
         x2="0"
         y1="-6.03"
         y2="12.16"
         id="line32"
         style="stroke:#97e0e8;stroke-opacity:1" />
      <path
         fill="none"
         stroke="red"
         stroke-width="0.1"
         d="M 100 0.06 L 99 0.3 L 98 0.53 L 97 0.77 L 96 1 L 94 1.46 L 92 1.91 L 90 2.35 L 88 2.78 L 86 3.2 L 84 3.61 L 82 4 L 80 4.39 L 78 4.76 L 76 5.13 L 74 5.48 L 72 5.82 L 70 6.14 L 68 6.46 L 66 6.76 L 64 7.05 L 62 7.32 L 60 7.58 L 58 7.81 L 56 8.03 L 54 8.24 L 52 8.42 L 50 8.59 L 48 8.74 L 46 8.86 L 44 8.97 L 42 9.06 L 40 9.12 L 38 9.15 L 36 9.16 L 34 9.15 L 32 9.12 L 30 9.07 L 28 9 L 26 8.91 L 24 8.78 L 22 8.61 L 20 8.39 L 18 8.11 L 16 7.76 L 14 7.34 L 12 6.86 L 10 6.3 L 8 5.64 L 6 4.88 L 5 4.43 L 4 3.91 L 3 3.3 L 2 2.54 L 1.2 1.79 L 0.8 1.37 L 0.4 0.89 L 0.2 0.58 L 0.1 0.37 L 0.05 0.23 L 0 0 L 0.05 -0.47 L 0.1 -0.59 L 0.2 -0.78 L 0.4 -1.05 L 0.8 -1.43 L 1.2 -1.7 L 2 -2.03 L 3 -2.26 L 4 -2.45 L 5 -2.6 L 6 -2.71 L 8 -2.85 L 10 -2.94 L 12 -3 L 14 -3.02 L 16 -3.03 L 18 -3 L 20 -2.97 L 22 -2.91 L 24 -2.85 L 26 -2.78 L 28 -2.71 L 30 -2.63 L 32 -2.56 L 34 -2.48 L 36 -2.41 L 38 -2.34 L 40 -2.26 L 42 -2.19 L 44 -2.12 L 46 -2.04 L 48 -1.97 L 50 -1.9 L 52 -1.82 L 54 -1.75 L 56 -1.68 L 58 -1.6 L 60 -1.53 L 62 -1.46 L 64 -1.38 L 66 -1.31 L 68 -1.24 L 70 -1.16 L 72 -1.09 L 74 -1.01 L 76 -0.94 L 78 -0.87 L 80 -0.79 L 82 -0.72 L 84 -0.65 L 86 -0.57 L 88 -0.5 L 90 -0.43 L 92 -0.35 L 94 -0.28 L 96 -0.21 L 97 -0.17 L 98 -0.13 L 99 -0.1 L 100 -0.06 "
         id="path26"
         style="stroke:#ffffff;stroke-opacity:1;stroke-width:0.5;stroke-miterlimit:4;stroke-dasharray:none" />
    </g>
  </g>
  <text
     xml:space="preserve"
     style="font-size:1.41111px;line-height:1.25;font-family:sans-serif;letter-spacing:0px;word-spacing:0px;fill:#97e0e8;fill-opacity:1;stroke:none;stroke-width:0.264583;stroke-opacity:1"
     x="30.858225"
     y="11.421549"
     id="text12192"><tspan
       sodipodi:role="line"
       id="tspan12190"
       style="font-size:1.41111px;fill:#97e0e8;fill-opacity:1;stroke:none;stroke-width:0.264583;stroke-opacity:1;font-weight:bold"
       x="30.858225"
       y="11.421549">Chord Line</tspan></text>
  <text
     xml:space="preserve"
     style="font-size:1.41111px;line-height:1.25;font-family:sans-serif;letter-spacing:0px;word-spacing:0px;white-space:pre;inline-size:0;fill:#fb6b29;fill-opacity:1;stroke:none;stroke-width:0.264583;stroke-opacity:1"
     x="34.364841"
     y="8.716445"
     id="text25928"
     transform="translate(2.805293,0.10018903)"><tspan
       id="tspan25926"
       style="font-size:1.41111px;fill:#fb6b29;fill-opacity:1;stroke:none;stroke-width:0.264583;stroke-opacity:1;font-weight:bold"
       x="34.364841"
       y="8.716445">Mean Camber</tspan></text>
  <text
     xml:space="preserve"
     style="font-size:1.41111px;line-height:1.25;font-family:sans-serif;letter-spacing:0px;word-spacing:0px;white-space:pre;inline-size:0.356918;fill:#97e0e8;fill-opacity:1;stroke:none;stroke-width:0.264583;stroke-opacity:1"
     x="6.712667"
     y="-2.1039708"
     id="text33177"><tspan
       x="6.712667"
       y="-2.1039708"
       id="tspan76722"><tspan
         dx="0 0.98529655 0.89296812 0.85645008 0.60220218 0.87918758 0.49609327 0.78548145 0.38722849 0.8929677 0.84060287 0.78548098"
         id="tspan76720">Chord LineLe</tspan></tspan></text>
  <text
     xml:space="preserve"
     style="font-size:1.41111px;line-height:1.25;font-family:sans-serif;letter-spacing:0px;word-spacing:0px;fill:#97e0e8;fill-opacity:1;stroke:none;stroke-width:0.264583;stroke-opacity:1"
     x="-10.805968"
     y="1.9684815"
     id="text35107"
     transform="rotate(-90)"><tspan
       sodipodi:role="line"
       id="tspan35105"
       style="font-size:1.41111px;fill:#97e0e8;fill-opacity:1;stroke:none;stroke-width:0.264583;stroke-opacity:1"
       x="-10.805968"
       y="1.9684815">Leading Edge</tspan></text>
  <text
     xml:space="preserve"
     style="font-size:1.41111px;line-height:1.25;font-family:sans-serif;letter-spacing:0px;word-spacing:0px;fill:#97e0e8;fill-opacity:1;stroke:none;stroke-width:0.264583;stroke-opacity:1"
     x="-10.805968"
     y="104.96281"
     id="text37321"
     transform="rotate(-90)"><tspan
       sodipodi:role="line"
       id="tspan37319"
       style="font-size:1.41111px;fill:#97e0e8;fill-opacity:1;stroke:none;stroke-width:0.264583;stroke-opacity:1"
       x="-10.805968"
       y="104.96281">Trailing Edge</tspan></text>
  <path
     style="fill:none;fill-opacity:1;fill-rule:evenodd;stroke:#57d069;stroke-width:0.565;stroke-linecap:butt;stroke-linejoin:miter;stroke-miterlimit:4;stroke-dasharray:none;stroke-opacity:1"
     d="m 26.149338,3.4929865 0,11.5055025"
     id="path50566"
     sodipodi:nodetypes="cc" />
  <text
     xml:space="preserve"
     style="font-size:1.41111px;line-height:1.25;font-family:sans-serif;letter-spacing:0px;word-spacing:0px;fill:#57d069;fill-opacity:1;stroke:none;stroke-width:0.264583;stroke-opacity:1"
     x="27.652176"
     y="5.4102068"
     id="text64963"><tspan
       sodipodi:role="line"
       id="tspan64961"
       style="font-weight:bold;font-size:1.41111px;fill:#57d069;fill-opacity:1;stroke:none;stroke-width:0.264583;stroke-opacity:1"
       x="27.652176"
       y="5.4102068">Maximum Thickness</tspan></text>
</svg>
